<svg xmlns="http://www.w3.org/2000/svg" version="1.1" xmlns:xlink="http://www.w3.org/1999/xlink" xmlns:svgjs="http://svgjs.dev/svgjs" viewBox="0 0 11.783787844936679 2.901375206247506"><g transform="matrix(1,0,0,1,3.927475429111343,0.5112714376389679)"><g><path d=" M 0.38133 0.9650325 C 0.38133 0.9549974999999999 0.38133 0.9449624999999999 0.38300249999999997 0.9315824999999999 C 0.605445 0.7208474999999999 0.839595 0.4047449999999999 0.839595 0.2926874999999999 C 0.839595 0.24083999999999994 0.8078175 0.21407999999999994 0.7660049999999999 0.21407999999999994 C 0.6338775 0.21407999999999994 0.48335249999999996 0.4766624999999999 0.3997275 0.7041225 C 0.38802 0.6907424999999999 0.36125999999999997 0.6689999999999999 0.3094125 0.6689999999999999 C 0.177285 0.6689999999999999 -0.0351225 0.8596649999999999 -0.0351225 1.0235699999999999 C -0.0351225 1.0887974999999999 0.01338 1.1339549999999998 0.070245 1.1339549999999998 C 0.1321275 1.1339549999999998 0.23080499999999998 1.0687274999999998 0.337845 0.9733949999999999 C 0.33951749999999997 1.060365 0.38802 1.09716 0.45324749999999997 1.09716 C 0.578685 1.09716 0.7308825 0.9215475 0.7308825 0.9215475 C 0.7308825 0.9215475 0.7392449999999999 0.9115125 0.7392449999999999 0.9048224999999999 C 0.7392449999999999 0.8964599999999999 0.732555 0.88977 0.7225199999999999 0.88977 C 0.71583 0.88977 0.7074675 0.899805 0.7074675 0.899805 C 0.7074675 0.899805 0.5736675 1.0586924999999998 0.45659249999999996 1.0586924999999998 C 0.42147 1.0586924999999998 0.38133 1.040295 0.38133 0.9650325 M 0.07359 1.0954875 C 0.0384675 1.0954875 0.0083625 1.0703999999999998 0.0083625 1.0285875 C 0.0083625 0.8847524999999999 0.20237249999999998 0.7041225 0.3161025 0.7041225 C 0.3595875 0.7041225 0.37798499999999996 0.7241924999999999 0.38802 0.7409174999999999 C 0.364605 0.8094899999999999 0.34787999999999997 0.8730449999999998 0.34119 0.9248924999999999 C 0.2324775 1.0252424999999998 0.1321275 1.0954875 0.07359 1.0954875 M 0.76266 0.2525474999999999 C 0.7844025 0.2525474999999999 0.8011275 0.2659274999999999 0.8011275 0.28934249999999995 C 0.8011275 0.3947099999999999 0.5937375 0.6740174999999999 0.3930375 0.8747174999999999 C 0.4432125 0.6556199999999999 0.6271875 0.2525474999999999 0.76266 0.2525474999999999 M 1.298652150878906 0.9215475 C 1.298652150878906 0.9215475 1.307014650878906 0.9115125 1.307014650878906 0.9048224999999999 C 1.307014650878906 0.8964599999999999 1.301997150878906 0.88977 1.291962150878906 0.88977 C 1.283599650878906 0.88977 1.275237150878906 0.899805 1.275237150878906 0.899805 C 1.275237150878906 0.899805 1.109659650878906 1.0988324999999999 0.9206671508789062 1.0988324999999999 C 0.8520946508789061 1.0988324999999999 0.8069371508789062 1.0570199999999998 0.8069371508789062 0.9934649999999999 C 0.8069371508789062 0.9834299999999999 0.8069371508789062 0.9717224999999999 0.8086096508789061 0.9616874999999999 C 0.9490996508789061 0.9282374999999999 1.1782321508789062 0.8345775 1.1782321508789062 0.7358999999999999 C 1.1782321508789062 0.6940875 1.1464546508789062 0.6639824999999999 1.0946071508789061 0.6639824999999999 C 0.9674971508789061 0.6639824999999999 0.7601071508789061 0.8329049999999999 0.7601071508789061 0.9884474999999999 C 0.7601071508789061 1.08378 0.8336971508789062 1.1373 0.9206671508789062 1.1373 C 1.1146771508789062 1.1373 1.298652150878906 0.9215475 1.298652150878906 0.9215475 M 1.101297150878906 0.7007774999999998 C 1.1247121508789062 0.7007774999999998 1.1380921508789061 0.71583 1.1380921508789061 0.7308824999999999 C 1.1380921508789061 0.8078174999999999 0.947427150878906 0.8931149999999999 0.8203171508789061 0.9232199999999999 C 0.8654746508789061 0.8094899999999999 1.0042921508789062 0.7007774999999998 1.101297150878906 0.7007774999999998 M 1.7978648181152341 0.6589649999999999 C 1.7978648181152341 0.6020999999999999 1.7610698181152342 0.5703225 1.7476898181152343 0.5703225 C 1.7426723181152342 0.5703225 1.7393273181152342 0.57534 1.7393273181152342 0.5803574999999999 C 1.7393273181152342 0.5887199999999999 1.7527073181152342 0.6087899999999999 1.7527073181152342 0.6439124999999999 C 1.7527073181152342 0.7409174999999999 1.6891523181152341 0.8429399999999999 1.6138898181152341 0.9248924999999999 C 1.6122173181152342 0.9232199999999999 1.6088723181152342 0.9232199999999999 1.6071998181152343 0.9232199999999999 C 1.5888023181152342 0.9232199999999999 1.5653873181152342 0.9449624999999999 1.5653873181152342 0.9650325 L 1.5653873181152342 0.9733949999999999 C 1.4984873181152343 1.0336049999999999 1.4299148181152341 1.073745 1.3981373181152341 1.073745 C 1.3730498181152342 1.073745 1.3546523181152341 1.060365 1.3546523181152341 1.0285875 C 1.3546523181152341 0.9365999999999999 1.4851073181152343 0.759315 1.5252473181152342 0.7074674999999999 C 1.5319373181152343 0.6991049999999999 1.5352823181152342 0.6924149999999999 1.5352823181152342 0.6873974999999999 C 1.5352823181152342 0.6773624999999999 1.5235748181152342 0.6673274999999999 1.5118673181152342 0.6673274999999999 C 1.4851073181152343 0.6673274999999999 1.3061498181152342 0.9182024999999999 1.3061498181152342 1.0336049999999999 C 1.3061498181152342 1.0787624999999998 1.3479623181152343 1.1155575 1.3881023181152343 1.1155575 C 1.4332598181152343 1.1155575 1.5101948181152343 1.073745 1.5837848181152343 1.0118624999999999 C 1.6088723181152342 1.0369499999999998 1.6523573181152342 1.053675 1.6991873181152342 1.053675 C 1.7777948181152343 1.053675 1.8580748181152342 1.0135349999999999 1.941699818115234 0.9215475 C 1.941699818115234 0.9215475 1.9500623181152341 0.9115125 1.9500623181152341 0.9048224999999999 C 1.9500623181152341 0.8964599999999999 1.9433723181152343 0.88977 1.9350098181152342 0.88977 C 1.9266473181152342 0.88977 1.918284818115234 0.899805 1.918284818115234 0.899805 C 1.843022318115234 0.986775 1.7727773181152342 1.020225 1.7075498181152342 1.020225 C 1.6623923181152342 1.020225 1.6339598181152342 0.9984824999999999 1.6255973181152341 0.9733949999999999 C 1.7175848181152342 0.8830799999999999 1.7978648181152341 0.7643324999999999 1.7978648181152341 0.6589649999999999 M 3.7957109838867185 0 C 3.5247659838867182 0 3.3173759838867185 0.35456999999999994 3.0999509838867185 0.7141574999999999 C 2.750398483886719 0.7091399999999999 2.588165983886719 0.5669774999999999 2.588165983886719 0.3947099999999999 C 2.588165983886719 0.24752999999999992 2.7370184838867186 0.1505249999999999 2.8524209838867187 0.1505249999999999 C 2.9327009838867184 0.1505249999999999 2.9812034838867185 0.17561249999999995 2.9862209838867186 0.17561249999999995 C 2.9929109838867185 0.17561249999999995 2.9979284838867186 0.16892249999999998 2.9979284838867186 0.1622324999999999 C 2.9979284838867186 0.15386999999999995 2.9444084838867184 0.1237649999999999 2.8474034838867186 0.1237649999999999 C 2.7169484838867186 0.1237649999999999 2.5396634838867187 0.2157524999999999 2.5396634838867187 0.40307249999999994 C 2.5396634838867187 0.5870474999999999 2.7286559838867186 0.7509524999999999 3.074863483886719 0.7542974999999998 C 2.9945834838867187 0.8880974999999999 2.9109584838867186 1.020225 2.8223159838867184 1.1339549999999998 C 2.663428483886719 1.0570199999999998 2.501195983886719 0.9934649999999999 2.350670983886719 0.9934649999999999 C 2.1834209838867187 0.9934649999999999 2.014498483886719 1.09716 2.014498483886719 1.2644099999999998 C 2.014498483886719 1.4232974999999999 2.1416084838867184 1.5119399999999998 2.2971509838867186 1.5119399999999998 C 2.5095584838867184 1.5119399999999998 2.6834984838867184 1.3764675 2.8390409838867185 1.1891474999999998 C 3.0782084838867183 1.3062224999999998 3.3157034838867183 1.4500574999999998 3.5030234838867185 1.4500574999999998 C 3.6401684838867183 1.4500574999999998 3.7304834838867187 1.32462 3.7304834838867187 1.3162574999999999 C 3.7304834838867187 1.31124 3.723793483886719 1.3045499999999999 3.7187759838867187 1.3045499999999999 C 3.7053959838867185 1.3045499999999999 3.6318059838867187 1.4048999999999998 3.5097134838867188 1.4048999999999998 C 3.3257384838867186 1.4048999999999998 3.098278483886719 1.2694275 2.8658009838867184 1.1540249999999999 C 2.9611334838867185 1.0336049999999999 3.0497759838867187 0.8931149999999999 3.1350734838867185 0.7526249999999999 C 3.6033734838867186 0.7342274999999999 4.006445983886719 0.4381949999999999 4.006445983886719 0.18062999999999996 C 4.006445983886719 0.06857249999999993 3.9295109838867184 0 3.7957109838867185 0 M 3.8141084838867183 0.03846749999999988 C 3.8943884838867184 0.03846749999999988 3.9629609838867186 0.09031499999999992 3.9629609838867186 0.16892249999999998 C 3.9629609838867186 0.41979749999999993 3.573268483886719 0.6957599999999999 3.1584884838867184 0.7124849999999999 C 3.3692234838867186 0.3662774999999999 3.5649059838867183 0.03846749999999988 3.8141084838867183 0.03846749999999988 M 2.3004959838867185 1.4701274999999998 C 2.1817484838867185 1.4701274999999998 2.0579834838867184 1.388175 2.0579834838867184 1.2644099999999998 C 2.0579834838867184 1.127265 2.2085084838867184 1.0336049999999999 2.3406359838867186 1.0336049999999999 C 2.4827984838867185 1.0336049999999999 2.6383409838867187 1.093815 2.7938834838867184 1.1674049999999998 C 2.6500484838867187 1.34469 2.4911609838867186 1.4701274999999998 2.3004959838867185 1.4701274999999998 M 4.13268298461914 1.0336049999999999 C 4.20794548461914 1.0336049999999999 4.29324298461914 0.9984824999999999 4.36850548461914 0.9215475 C 4.36850548461914 0.9215475 4.37686798461914 0.9115125 4.37686798461914 0.9048224999999999 C 4.37686798461914 0.8964599999999999 4.37017798461914 0.88977 4.36181548461914 0.88977 C 4.35345298461914 0.88977 4.34509048461914 0.899805 4.34509048461914 0.899805 C 4.28320798461914 0.9650325 4.21129048461914 0.9984824999999999 4.1410454846191405 0.9984824999999999 L 4.1293379846191405 0.9984824999999999 C 4.1928929846191405 0.9299099999999999 4.24139548461914 0.8412675 4.24139548461914 0.7576424999999999 C 4.24139548461914 0.6439124999999999 4.17784048461914 0.5903924999999999 4.09756048461914 0.5903924999999999 C 4.00055548461914 0.5903924999999999 3.89184298461914 0.6673274999999999 3.87344548461914 0.76935 C 3.8266154846191403 0.8211974999999999 3.7965104846191404 0.8914424999999999 3.7965104846191404 0.9717224999999999 C 3.7965104846191404 1.06371 3.8517029846191404 1.1122124999999998 3.92362048461914 1.1122124999999998 C 3.9771404846191403 1.1122124999999998 4.04069548461914 1.0804349999999998 4.09588798461914 1.0319325 C 4.10759548461914 1.0336049999999999 4.11930298461914 1.0336049999999999 4.13268298461914 1.0336049999999999 M 3.91191298461914 0.7944374999999999 C 3.96376048461914 0.7342274999999999 4.03735048461914 0.6957599999999999 4.10759548461914 0.6857249999999999 C 4.11930298461914 0.6840525 4.12599298461914 0.68238 4.12599298461914 0.672345 C 4.12599298461914 0.66231 4.11428548461914 0.6589649999999999 4.099232984619141 0.6589649999999999 C 4.04905798461914 0.6589649999999999 3.9938654846191404 0.6773624999999999 3.9453629846191403 0.7074674999999999 C 3.98383048461914 0.6606375 4.04905798461914 0.6305324999999999 4.09588798461914 0.6305324999999999 C 4.14773548461914 0.6305324999999999 4.19791048461914 0.6706724999999999 4.19791048461914 0.7576424999999999 C 4.19791048461914 0.8395949999999999 4.146062984619141 0.9282374999999999 4.0825079846191406 0.9917924999999999 C 3.98048548461914 0.9667049999999999 3.91191298461914 0.8814074999999999 3.91191298461914 0.7944374999999999 M 3.93198298461914 1.0720725 C 3.87344548461914 1.0720725 3.8433404846191404 1.0419675 3.8433404846191404 0.9717224999999999 C 3.8433404846191404 0.9232199999999999 3.8550479846191403 0.8814074999999999 3.87679048461914 0.8429399999999999 C 3.8951879846191404 0.9215475 3.9620879846191404 0.9917924999999999 4.04905798461914 1.020225 C 4.00891798461914 1.0520025 3.96710548461914 1.0720725 3.93198298461914 1.0720725 M 4.88452400024414 0.6589649999999999 C 4.88452400024414 0.6020999999999999 4.84772900024414 0.5703225 4.83434900024414 0.5703225 C 4.82933150024414 0.5703225 4.82598650024414 0.57534 4.82598650024414 0.5803574999999999 C 4.82598650024414 0.5887199999999999 4.83936650024414 0.6087899999999999 4.83936650024414 0.6439124999999999 C 4.83936650024414 0.7409174999999999 4.77581150024414 0.8429399999999999 4.70054900024414 0.9248924999999999 C 4.69887650024414 0.9232199999999999 4.69553150024414 0.9232199999999999 4.69385900024414 0.9232199999999999 C 4.67546150024414 0.9232199999999999 4.65204650024414 0.9449624999999999 4.65204650024414 0.9650325 L 4.65204650024414 0.9733949999999999 C 4.58514650024414 1.0336049999999999 4.51657400024414 1.073745 4.48479650024414 1.073745 C 4.45970900024414 1.073745 4.44131150024414 1.060365 4.44131150024414 1.0285875 C 4.44131150024414 0.9365999999999999 4.57176650024414 0.759315 4.61190650024414 0.7074674999999999 C 4.61859650024414 0.6991049999999999 4.62194150024414 0.6924149999999999 4.62194150024414 0.6873974999999999 C 4.62194150024414 0.6773624999999999 4.61023400024414 0.6673274999999999 4.59852650024414 0.6673274999999999 C 4.57176650024414 0.6673274999999999 4.3928090002441404 0.9182024999999999 4.3928090002441404 1.0336049999999999 C 4.3928090002441404 1.0787624999999998 4.43462150024414 1.1155575 4.47476150024414 1.1155575 C 4.51991900024414 1.1155575 4.59685400024414 1.073745 4.67044400024414 1.0118624999999999 C 4.69553150024414 1.0369499999999998 4.73901650024414 1.053675 4.78584650024414 1.053675 C 4.86445400024414 1.053675 4.94473400024414 1.0135349999999999 5.02835900024414 0.9215475 C 5.02835900024414 0.9215475 5.03672150024414 0.9115125 5.03672150024414 0.9048224999999999 C 5.03672150024414 0.8964599999999999 5.0300315002441405 0.88977 5.02166900024414 0.88977 C 5.0133065002441395 0.88977 5.00494400024414 0.899805 5.00494400024414 0.899805 C 4.92968150024414 0.986775 4.85943650024414 1.020225 4.79420900024414 1.020225 C 4.74905150024414 1.020225 4.72061900024414 0.9984824999999999 4.71225650024414 0.9733949999999999 C 4.80424400024414 0.8830799999999999 4.88452400024414 0.7643324999999999 4.88452400024414 0.6589649999999999 M 5.571105666503906 0.9215475 C 5.571105666503906 0.9215475 5.579468166503906 0.9115125 5.579468166503906 0.9048224999999999 C 5.579468166503906 0.8964599999999999 5.574450666503906 0.88977 5.564415666503906 0.88977 C 5.556053166503906 0.88977 5.547690666503906 0.899805 5.547690666503906 0.899805 C 5.547690666503906 0.899805 5.382113166503906 1.0988324999999999 5.193120666503906 1.0988324999999999 C 5.124548166503906 1.0988324999999999 5.0793906665039055 1.0570199999999998 5.0793906665039055 0.9934649999999999 C 5.0793906665039055 0.9834299999999999 5.0793906665039055 0.9717224999999999 5.081063166503906 0.9616874999999999 C 5.221553166503906 0.9282374999999999 5.450685666503905 0.8345775 5.450685666503905 0.7358999999999999 C 5.450685666503905 0.6940875 5.418908166503906 0.6639824999999999 5.367060666503906 0.6639824999999999 C 5.239950666503906 0.6639824999999999 5.0325606665039055 0.8329049999999999 5.0325606665039055 0.9884474999999999 C 5.0325606665039055 1.08378 5.106150666503906 1.1373 5.193120666503906 1.1373 C 5.387130666503905 1.1373 5.571105666503906 0.9215475 5.571105666503906 0.9215475 M 5.373750666503906 0.7007774999999998 C 5.397165666503906 0.7007774999999998 5.410545666503905 0.71583 5.410545666503905 0.7308824999999999 C 5.410545666503905 0.8078174999999999 5.219880666503906 0.8931149999999999 5.092770666503906 0.9232199999999999 C 5.137928166503905 0.8094899999999999 5.276745666503905 0.7007774999999998 5.373750666503906 0.7007774999999998 M 6.033523333740233 0.9215475 C 6.033523333740233 0.9215475 6.041885833740233 0.9115125 6.041885833740233 0.9048224999999999 C 6.041885833740233 0.8964599999999999 6.035195833740233 0.88977 6.025160833740234 0.88977 C 6.018470833740233 0.88977 6.0101083337402335 0.899805 6.0101083337402335 0.899805 C 5.9866933337402335 0.9248924999999999 5.849548333740233 1.0821075 5.742508333740234 1.0821075 C 5.683970833740234 1.0821075 5.652193333740233 1.0486574999999998 5.652193333740233 0.9901199999999999 C 5.652193333740233 0.9365999999999999 5.667245833740234 0.9165299999999998 5.667245833740234 0.9165299999999998 C 5.8763083337402335 0.7225199999999998 6.199100833740234 0.39303749999999993 6.199100833740234 0.26759999999999995 C 6.199100833740234 0.22411499999999995 6.1723408337402335 0.19735499999999995 6.130528333740234 0.19735499999999995 C 5.980003333740234 0.19735499999999995 5.610380833740233 0.7108124999999998 5.610380833740233 0.9901199999999999 C 5.610380833740233 1.0720725 5.663900833740233 1.1205749999999999 5.734145833740233 1.1205749999999999 C 5.856238333740233 1.1205749999999999 6.0101083337402335 0.9466349999999999 6.033523333740233 0.9215475 M 6.132200833740233 0.2324774999999999 C 6.1489258337402335 0.2324774999999999 6.1606333337402335 0.2425124999999999 6.1606333337402335 0.26091 C 6.1606333337402335 0.37464 5.842858333740233 0.6991049999999999 5.670590833740233 0.8646824999999999 C 5.752543333740233 0.6154799999999999 6.023488333740233 0.2324774999999999 6.132200833740233 0.2324774999999999 M 6.502650600585937 1.073745 C 6.564533100585937 1.073745 6.638123100585936 1.0235699999999999 6.731783100585937 0.9215475 C 6.731783100585937 0.9215475 6.740145600585937 0.9115125 6.740145600585937 0.9048224999999999 C 6.740145600585937 0.8964599999999999 6.733455600585937 0.88977 6.7234206005859365 0.88977 C 6.716730600585937 0.88977 6.708368100585937 0.899805 6.708368100585937 0.899805 C 6.621398100585937 0.9968099999999999 6.557843100585937 1.0386225 6.511013100585937 1.0386225 C 6.467528100585937 1.0386225 6.4390956005859366 1.01019 6.4390956005859366 0.9483074999999999 C 6.4390956005859366 0.88977 6.472545600585937 0.8496299999999999 6.472545600585937 0.8395949999999999 C 6.472545600585937 0.8262149999999999 6.460838100585937 0.8178524999999999 6.4508031005859365 0.8178524999999999 C 6.435750600585937 0.8178524999999999 6.403973100585937 0.8696999999999999 6.358815600585936 0.9232199999999999 C 6.303623100585937 0.9901199999999999 6.191565600585936 1.0954875 6.121320600585936 1.0954875 C 6.094560600585937 1.0954875 6.077835600585937 1.0821075 6.077835600585937 1.0469849999999998 C 6.077835600585937 0.9098399999999999 6.283553100585936 0.6940875 6.467528100585937 0.6940875 C 6.517703100585937 0.6940875 6.531083100585937 0.7275375 6.531083100585937 0.7509524999999999 C 6.531083100585937 0.7676774999999999 6.5260656005859365 0.7760399999999998 6.5260656005859365 0.7844024999999999 C 6.5260656005859365 0.7910925 6.529410600585937 0.7944374999999999 6.536100600585937 0.7944374999999999 C 6.546135600585937 0.7944374999999999 6.566205600585937 0.7710224999999999 6.566205600585937 0.7409174999999999 C 6.566205600585937 0.6991049999999999 6.531083100585937 0.6572924999999998 6.452475600585936 0.6572924999999998 C 6.270173100585937 0.6572924999999998 6.032678100585937 0.8830799999999999 6.032678100585937 1.0469849999999998 C 6.032678100585937 1.10385 6.071145600585937 1.1339549999999998 6.116303100585936 1.1339549999999998 C 6.2016006005859365 1.1339549999999998 6.328710600585937 1.0118624999999999 6.393938100585936 0.9365999999999999 C 6.393938100585936 1.01688 6.4390956005859366 1.073745 6.502650600585937 1.073745 M 6.8329456677246085 0.9031499999999999 C 7.062078167724608 0.7275375 7.435045667724609 0.4164524999999999 7.435045667724609 0.2709449999999999 C 7.435045667724609 0.22745999999999988 7.404940667724608 0.1940099999999999 7.351420667724608 0.1940099999999999 C 7.1808256677246085 0.1940099999999999 6.993505667724608 0.4866974999999999 6.8329456677246085 0.7961099999999999 C 6.766045667724608 0.9232199999999999 6.672385667724608 1.13061 6.672385667724608 1.147335 C 6.672385667724608 1.1590425 6.684093167724608 1.1674049999999998 6.6941281677246085 1.1674049999999998 C 6.7058356677246085 1.1674049999999998 6.7175431677246085 1.1389725 6.7693906677246085 1.0754175 C 6.807858167724608 1.0285875 6.871413167724608 0.9834299999999999 6.941658167724608 0.9416174999999999 C 7.001868167724608 0.9834299999999999 7.021938167724608 1.093815 7.142358167724608 1.093815 C 7.259433167724608 1.093815 7.364800667724608 0.9750674999999999 7.416648167724608 0.9215475 C 7.416648167724608 0.9215475 7.425010667724608 0.9115125 7.425010667724608 0.9048224999999999 C 7.425010667724608 0.8964599999999999 7.4183206677246085 0.88977 7.409958167724608 0.88977 C 7.401595667724608 0.88977 7.393233167724608 0.899805 7.393233167724608 0.899805 C 7.346403167724608 0.9499799999999999 7.257760667724608 1.0570199999999998 7.144030667724608 1.0570199999999998 C 7.062078167724608 1.0570199999999998 7.036990667724608 0.9616874999999999 6.976780667724608 0.9215475 C 7.120615667724608 0.8395949999999999 7.274485667724608 0.7660049999999999 7.274485667724608 0.7041225 C 7.274485667724608 0.6940875 7.262778167724608 0.6773624999999999 7.254415667724608 0.6773624999999999 C 7.251070667724608 0.6773624999999999 7.247725667724608 0.6790349999999998 7.2443806677246085 0.6840525 C 7.184170667724608 0.8145074999999999 6.881448167724608 0.8814074999999999 6.767718167724608 1.0285875 C 6.767718167724608 1.0285875 6.796150667724608 0.9683774999999999 6.8329456677246085 0.9031499999999999 M 7.356438167724608 0.23080499999999993 C 7.379853167724608 0.23080499999999993 7.396578167724608 0.24920249999999988 7.396578167724608 0.2709449999999999 C 7.396578167724608 0.40307249999999994 7.045353167724608 0.6991049999999999 6.849670667724609 0.8479574999999999 C 7.015248167724608 0.5469074999999999 7.214275667724608 0.23080499999999993 7.356438167724608 0.23080499999999993" fill="url(#gradient-bcbd488b-bc96-49f6-a7e1-7ccf25e251d1)" fill-rule="nonzero"></path></g><g><path d=" M 0.028368749999999998 1.8559269375 L 0.028368749999999998 1.6296144375000001 L 0.12208124999999999 1.6296144375000001 Q 0.13674375 1.6296144375000001 0.14901562499999998 1.6356706875 Q 0.16128749999999997 1.6417269375 0.1702125 1.6520863125 Q 0.17913749999999998 1.6624456875 0.18423749999999997 1.6750363125 Q 0.1893375 1.6876269375000001 0.1893375 1.7006956875 Q 0.1893375 1.7191831875 0.18120937499999998 1.7355988125000001 Q 0.17308125 1.7520144375 0.15841875 1.7622144375 Q 0.14375624999999997 1.7724144375000002 0.12399374999999999 1.7724144375000002 L 0.05068125 1.7724144375000002 L 0.05068125 1.8559269375 L 0.028368749999999998 1.8559269375 M 0.05068125 1.7526519375 L 0.1230375 1.7526519375 Q 0.136425 1.7526519375 0.14630625 1.7453206875 Q 0.15618749999999998 1.7379894375 0.16160624999999998 1.7261956875 Q 0.16702499999999998 1.7144019375000001 0.16702499999999998 1.7006956875 Q 0.16702499999999998 1.6866706875 0.16065 1.6748769375 Q 0.154275 1.6630831875 0.143915625 1.6562300625000002 Q 0.13355625 1.6493769375 0.12112499999999998 1.6493769375 L 0.05068125 1.6493769375 L 0.05068125 1.7526519375 M 0.3808135821533203 1.7089831875000001 Q 0.3591385821533203 1.7096206875 0.3427229571533203 1.7210956875 Q 0.3263073321533203 1.7325706875 0.3196135821533203 1.7526519375 L 0.3196135821533203 1.8559269375 L 0.2979385821533203 1.8559269375 L 0.2979385821533203 1.6898581875 L 0.3183385821533203 1.6898581875 L 0.3183385821533203 1.7297019375 Q 0.32694483215332026 1.7121706875 0.3411292071533203 1.7013331875 Q 0.35531358215332026 1.6904956875000001 0.37125108215332026 1.6892206875 Q 0.37443858215332027 1.6889019375 0.3768292071533203 1.6889019375 Q 0.3792198321533203 1.6889019375 0.3808135821533203 1.6892206875 L 0.3808135821533203 1.7089831875000001 M 0.5512562109375 1.8591144375 Q 0.5334062109375 1.8591144375 0.5182655859374999 1.8522613125 Q 0.5031249609374999 1.8454081875000001 0.49212808593749996 1.8334550625000001 Q 0.48113121093749994 1.8215019375000001 0.47507496093749996 1.8060425625 Q 0.46901871093749997 1.7905831875 0.46901871093749997 1.7733706875 Q 0.46901871093749997 1.7555206875 0.47507496093749996 1.7400613125 Q 0.48113121093749994 1.7246019375000001 0.4922874609375 1.7126488125000001 Q 0.5034437109375 1.7006956875 0.5185843359375 1.6938425625 Q 0.5337249609375 1.6869894375 0.5515749609374999 1.6869894375 Q 0.5694249609375 1.6869894375 0.5844062109374999 1.6938425625 Q 0.5993874609375 1.7006956875 0.6105437109374999 1.7126488125000001 Q 0.6216999609375 1.7246019375000001 0.6277562109374999 1.7400613125 Q 0.6338124609375 1.7555206875 0.6338124609375 1.7733706875 Q 0.6338124609375 1.7905831875 0.6277562109374999 1.8060425625 Q 0.6216999609375 1.8215019375000001 0.6107030859375 1.8334550625000001 Q 0.5997062109375 1.8454081875000001 0.5845655859375 1.8522613125 Q 0.5694249609375 1.8591144375 0.5512562109375 1.8591144375 M 0.49101246093749995 1.7736894375 Q 0.49101246093749995 1.7921769375 0.4991405859375 1.8073175625 Q 0.5072687109374999 1.8224581875 0.5209749609375 1.8312238125 Q 0.5346812109375 1.8399894375 0.5512562109375 1.8399894375 Q 0.5678312109375 1.8399894375 0.5815374609374999 1.8310644375 Q 0.5952437109375 1.8221394375 0.6035312109375 1.8066800625000001 Q 0.6118187109375 1.7912206875 0.6118187109375 1.7730519375 Q 0.6118187109375 1.7545644375 0.6035312109375 1.7392644375000001 Q 0.5952437109375 1.7239644375 0.5815374609374999 1.7150394375 Q 0.5678312109375 1.7061144375000001 0.5512562109375 1.7061144375000001 Q 0.5346812109375 1.7061144375000001 0.5211343359374999 1.7153581875000001 Q 0.5075874609375 1.7246019375000001 0.49929996093749995 1.7397425625 Q 0.49101246093749995 1.7548831875 0.49101246093749995 1.7736894375 M 0.8125262475585937 1.8581581875 Q 0.7956324975585938 1.8581581875 0.7812887475585937 1.8511456875 Q 0.7669449975585937 1.8441331875 0.7565856225585937 1.8321800625 Q 0.7462262475585937 1.8202269375 0.7404887475585937 1.8049269375 Q 0.7347512475585938 1.7896269375 0.7347512475585938 1.7733706875 Q 0.7347512475585938 1.7558394375000002 0.7403293725585938 1.7403800625 Q 0.7459074975585938 1.7249206875 0.7562668725585937 1.7128081875 Q 0.7666262475585938 1.7006956875 0.7806512475585937 1.6938425625 Q 0.7946762475585938 1.6869894375 0.8118887475585937 1.6869894375 Q 0.8332449975585937 1.6869894375 0.8490231225585937 1.6978269375000001 Q 0.8648012475585938 1.7086644375 0.8756387475585937 1.7246019375000001 L 0.8756387475585937 1.6898581875 L 0.8950824975585937 1.6898581875 L 0.8950824975585937 1.8565644375 Q 0.8950824975585937 1.8795144375000001 0.8840856225585937 1.8952925625 Q 0.8730887475585938 1.9110706875 0.8544418725585937 1.9190394375 Q 0.8357949975585938 1.9270081875 0.8138012475585937 1.9270081875 Q 0.7854324975585938 1.9270081875 0.7679012475585938 1.9168081875 Q 0.7503699975585938 1.9066081875 0.7392137475585937 1.8893956875 L 0.7526012475585937 1.8788769375 Q 0.7624824975585938 1.8944956875 0.7788981225585937 1.9021456875 Q 0.7953137475585937 1.9097956875 0.8138012475585937 1.9097956875 Q 0.8300574975585937 1.9097956875 0.8436043725585938 1.9038988125 Q 0.8571512475585937 1.8980019375000001 0.8652793725585937 1.8862081875 Q 0.8734074975585937 1.8744144375 0.8734074975585937 1.8565644375 L 0.8734074975585937 1.8237331875 Q 0.8638449975585938 1.8393519375 0.8472699975585938 1.8487550625 Q 0.8306949975585938 1.8581581875 0.8125262475585937 1.8581581875 M 0.8185824975585937 1.8399894375 Q 0.8284637475585938 1.8399894375 0.8375481225585937 1.8364831875 Q 0.8466324975585937 1.8329769375 0.8542824975585938 1.8270800625 Q 0.8619324975585937 1.8211831875 0.8670324975585937 1.8138519375 Q 0.8721324975585938 1.8065206875 0.8734074975585937 1.7988706875 L 0.8734074975585937 1.7475519375000002 Q 0.8686262475585937 1.7354394375 0.8597012475585937 1.7260363125 Q 0.8507762475585937 1.7166331875 0.8394606225585938 1.7113738125 Q 0.8281449975585937 1.7061144375000001 0.8160324975585938 1.7061144375000001 Q 0.8020074975585937 1.7061144375000001 0.7910106225585938 1.7120113125 Q 0.7800137475585938 1.7179081875 0.7725231225585938 1.7276300625 Q 0.7650324975585937 1.7373519375000002 0.7608887475585937 1.7494644375000001 Q 0.7567449975585937 1.7615769375 0.7567449975585937 1.7736894375 Q 0.7567449975585937 1.7870769375 0.7615262475585938 1.7990300625 Q 0.7663074975585937 1.8109831875 0.7747543725585937 1.8203863125 Q 0.7832012475585938 1.8297894375000001 0.7945168725585937 1.8348894375 Q 0.8058324975585938 1.8399894375 0.8185824975585937 1.8399894375 M 1.1015308026123047 1.7089831875000001 Q 1.0798558026123046 1.7096206875 1.0634401776123046 1.7210956875 Q 1.0470245526123048 1.7325706875 1.0403308026123046 1.7526519375 L 1.0403308026123046 1.8559269375 L 1.0186558026123047 1.8559269375 L 1.0186558026123047 1.6898581875 L 1.0390558026123047 1.6898581875 L 1.0390558026123047 1.7297019375 Q 1.0476620526123046 1.7121706875 1.0618464276123047 1.7013331875 Q 1.0760308026123047 1.6904956875000001 1.0919683026123046 1.6892206875 Q 1.0951558026123047 1.6889019375 1.0975464276123046 1.6889019375 Q 1.0999370526123047 1.6889019375 1.1015308026123047 1.6892206875 L 1.1015308026123047 1.7089831875000001 M 1.1922786163330077 1.8081144375 Q 1.1922786163330077 1.7924956875 1.2012036163330078 1.7811800625 Q 1.2101286163330078 1.7698644375 1.2259067413330078 1.7636488125 Q 1.2416848663330078 1.7574331875 1.2624036163330077 1.7574331875 Q 1.2745161163330079 1.7574331875 1.2875848663330078 1.7593456875 Q 1.3006536163330078 1.7612581875 1.3108536163330078 1.7650831875000002 L 1.3108536163330078 1.7510581875 Q 1.3108536163330078 1.7300206875000002 1.2984223663330077 1.7175894375 Q 1.2859911163330078 1.7051581875000001 1.2639973663330077 1.7051581875000001 Q 1.2506098663330079 1.7051581875000001 1.2377004913330079 1.7100988125 Q 1.2247911163330079 1.7150394375 1.2107661163330077 1.7246019375000001 L 1.2024786163330077 1.7093019375 Q 1.2187348663330078 1.6981456875 1.2343536163330078 1.6925675625 Q 1.2499723663330078 1.6869894375 1.2662286163330079 1.6869894375 Q 1.2968286163330078 1.6869894375 1.3146786163330078 1.7045206875 Q 1.3325286163330077 1.7220519375 1.3325286163330077 1.7529706875 L 1.3325286163330077 1.8297894375000001 Q 1.3325286163330077 1.8342519375000002 1.3344411163330077 1.8363238125 Q 1.3363536163330076 1.8383956875 1.3404973663330078 1.8387144375 L 1.3404973663330078 1.8559269375 Q 1.3369911163330077 1.8562456875 1.3344411163330077 1.8565644375 Q 1.3318911163330078 1.8568831875 1.3306161163330077 1.8565644375 Q 1.3226473663330078 1.8562456875 1.3185036163330077 1.8514644375 Q 1.3143598663330078 1.8466831875 1.3140411163330077 1.8412644375 L 1.3137223663330078 1.8291519375 Q 1.3025661163330078 1.8434956875000001 1.2847161163330079 1.8513050625 Q 1.2668661163330077 1.8591144375 1.2483786163330077 1.8591144375 Q 1.2324411163330078 1.8591144375 1.2195317413330078 1.8522613125 Q 1.2066223663330078 1.8454081875000001 1.1994504913330077 1.8337738125 Q 1.1922786163330077 1.8221394375 1.1922786163330077 1.8081144375 M 1.3035223663330078 1.8208644375 Q 1.3070286163330078 1.8164019375 1.3089411163330078 1.8122581875000001 Q 1.3108536163330078 1.8081144375 1.3108536163330078 1.8049269375 L 1.3108536163330078 1.7807019375 Q 1.3000161163330077 1.7765581875 1.2883817413330079 1.7743269375000001 Q 1.2767473663330078 1.7720956875 1.2649536163330077 1.7720956875 Q 1.2416848663330078 1.7720956875 1.2273411163330077 1.7813394375 Q 1.2129973663330078 1.7905831875 1.2129973663330078 1.8065206875 Q 1.2129973663330078 1.8157644375 1.2177786163330078 1.8238925625 Q 1.2225598663330077 1.8320206875 1.2318036163330077 1.8372800625 Q 1.2410473663330077 1.8425394375 1.2534786163330078 1.8425394375 Q 1.2690973663330078 1.8425394375 1.2826442413330077 1.8364831875 Q 1.2961911163330078 1.8304269375 1.3035223663330078 1.8208644375 M 1.7021775439453126 1.8559269375 L 1.6805025439453125 1.8559269375 L 1.6805025439453125 1.7631706875000002 Q 1.6805025439453125 1.7341644375 1.6712587939453125 1.7204581875 Q 1.6620150439453125 1.7067519375 1.6438462939453125 1.7067519375 Q 1.6250400439453125 1.7067519375 1.6102181689453126 1.7201394375 Q 1.5953962939453126 1.7335269375 1.5893400439453125 1.7545644375 L 1.5893400439453125 1.8559269375 L 1.5676650439453126 1.8559269375 L 1.5676650439453126 1.7631706875000002 Q 1.5676650439453126 1.7338456875000001 1.5587400439453125 1.7202988125 Q 1.5498150439453124 1.7067519375 1.5313275439453125 1.7067519375 Q 1.5128400439453125 1.7067519375 1.4978587939453125 1.7198206875 Q 1.4828775439453126 1.7328894375000001 1.4768212939453125 1.7542456875 L 1.4768212939453125 1.8559269375 L 1.4551462939453126 1.8559269375 L 1.4551462939453126 1.6898581875 L 1.4749087939453125 1.6898581875 L 1.4749087939453125 1.7274706875 Q 1.4854275439453126 1.7080269375000001 1.5018431689453124 1.6975081875 Q 1.5182587939453125 1.6869894375 1.5383400439453125 1.6869894375 Q 1.5590587939453124 1.6869894375 1.5718087939453125 1.6987831875000001 Q 1.5845587939453125 1.7105769375 1.5874275439453125 1.7297019375 Q 1.5989025439453126 1.7086644375 1.6149994189453125 1.6978269375000001 Q 1.6310962939453126 1.6869894375 1.6514962939453126 1.6869894375 Q 1.6655212939453126 1.6869894375 1.6752431689453124 1.6920894375 Q 1.6849650439453125 1.6971894375 1.6908619189453127 1.7065925625 Q 1.6967587939453126 1.7159956875 1.6994681689453126 1.7292238125000001 Q 1.7021775439453126 1.7424519375 1.7021775439453126 1.7587081875000001 L 1.7021775439453126 1.8559269375 M 2.0708776922607424 1.8559269375 L 2.0492026922607423 1.8559269375 L 2.0492026922607423 1.7631706875000002 Q 2.0492026922607423 1.7341644375 2.0399589422607423 1.7204581875 Q 2.0307151922607423 1.7067519375 2.012546442260742 1.7067519375 Q 1.9937401922607423 1.7067519375 1.9789183172607423 1.7201394375 Q 1.9640964422607423 1.7335269375 1.9580401922607422 1.7545644375 L 1.9580401922607422 1.8559269375 L 1.9363651922607423 1.8559269375 L 1.9363651922607423 1.7631706875000002 Q 1.9363651922607423 1.7338456875000001 1.9274401922607423 1.7202988125 Q 1.9185151922607422 1.7067519375 1.9000276922607422 1.7067519375 Q 1.8815401922607422 1.7067519375 1.8665589422607423 1.7198206875 Q 1.8515776922607423 1.7328894375000001 1.8455214422607422 1.7542456875 L 1.8455214422607422 1.8559269375 L 1.8238464422607423 1.8559269375 L 1.8238464422607423 1.6898581875 L 1.8436089422607422 1.6898581875 L 1.8436089422607422 1.7274706875 Q 1.8541276922607424 1.7080269375000001 1.8705433172607422 1.6975081875 Q 1.8869589422607422 1.6869894375 1.9070401922607423 1.6869894375 Q 1.9277589422607422 1.6869894375 1.9405089422607422 1.6987831875000001 Q 1.9532589422607423 1.7105769375 1.9561276922607422 1.7297019375 Q 1.9676026922607424 1.7086644375 1.9836995672607423 1.6978269375000001 Q 1.9997964422607424 1.6869894375 2.020196442260742 1.6869894375 Q 2.0342214422607423 1.6869894375 2.043943317260742 1.6920894375 Q 2.053665192260742 1.6971894375 2.0595620672607424 1.7065925625 Q 2.0654589422607423 1.7159956875 2.068168317260742 1.7292238125000001 Q 2.0708776922607424 1.7424519375 2.0708776922607424 1.7587081875000001 L 2.0708776922607424 1.8559269375 M 2.192546590576172 1.8559269375 L 2.192546590576172 1.6898581875 L 2.214221590576172 1.6898581875 L 2.214221590576172 1.8559269375 L 2.192546590576172 1.8559269375 M 2.192546590576172 1.6551144375 L 2.192546590576172 1.6232394375 L 2.214221590576172 1.6232394375 L 2.214221590576172 1.6551144375 L 2.192546590576172 1.6551144375 M 2.477419068603516 1.8559269375 L 2.455744068603516 1.8559269375 L 2.455744068603516 1.7631706875000002 Q 2.455744068603516 1.7338456875000001 2.4471378186035158 1.7202988125 Q 2.438531568603516 1.7067519375 2.420044068603516 1.7067519375 Q 2.407294068603516 1.7067519375 2.394862818603516 1.7129675625 Q 2.382431568603516 1.7191831875 2.373028443603516 1.7298613125 Q 2.363625318603516 1.7405394375 2.359481568603516 1.7542456875 L 2.359481568603516 1.8559269375 L 2.337806568603516 1.8559269375 L 2.337806568603516 1.6898581875 L 2.357569068603516 1.6898581875 L 2.357569068603516 1.7274706875 Q 2.3642628186035157 1.7153581875000001 2.375100318603516 1.7062738125 Q 2.385937818603516 1.6971894375 2.3996440686035156 1.6920894375 Q 2.413350318603516 1.6869894375 2.428012818603516 1.6869894375 Q 2.4417190686035157 1.6869894375 2.4512815686035156 1.6920894375 Q 2.460844068603516 1.6971894375 2.466581568603516 1.7065925625 Q 2.472319068603516 1.7159956875 2.4748690686035157 1.7292238125000001 Q 2.477419068603516 1.7424519375 2.477419068603516 1.7587081875000001 L 2.477419068603516 1.8559269375 M 2.666025933837891 1.8581581875 Q 2.649132183837891 1.8581581875 2.634788433837891 1.8511456875 Q 2.6204446838378908 1.8441331875 2.610085308837891 1.8321800625 Q 2.599725933837891 1.8202269375 2.593988433837891 1.8049269375 Q 2.588250933837891 1.7896269375 2.588250933837891 1.7733706875 Q 2.588250933837891 1.7558394375000002 2.593829058837891 1.7403800625 Q 2.599407183837891 1.7249206875 2.609766558837891 1.7128081875 Q 2.620125933837891 1.7006956875 2.634150933837891 1.6938425625 Q 2.6481759338378907 1.6869894375 2.665388433837891 1.6869894375 Q 2.686744683837891 1.6869894375 2.702522808837891 1.6978269375000001 Q 2.7183009338378907 1.7086644375 2.729138433837891 1.7246019375000001 L 2.729138433837891 1.6898581875 L 2.748582183837891 1.6898581875 L 2.748582183837891 1.8565644375 Q 2.748582183837891 1.8795144375000001 2.737585308837891 1.8952925625 Q 2.726588433837891 1.9110706875 2.707941558837891 1.9190394375 Q 2.689294683837891 1.9270081875 2.667300933837891 1.9270081875 Q 2.6389321838378907 1.9270081875 2.621400933837891 1.9168081875 Q 2.6038696838378907 1.9066081875 2.5927134338378908 1.8893956875 L 2.606100933837891 1.8788769375 Q 2.615982183837891 1.8944956875 2.632397808837891 1.9021456875 Q 2.648813433837891 1.9097956875 2.667300933837891 1.9097956875 Q 2.683557183837891 1.9097956875 2.697104058837891 1.9038988125 Q 2.710650933837891 1.8980019375000001 2.718779058837891 1.8862081875 Q 2.726907183837891 1.8744144375 2.726907183837891 1.8565644375 L 2.726907183837891 1.8237331875 Q 2.717344683837891 1.8393519375 2.700769683837891 1.8487550625 Q 2.684194683837891 1.8581581875 2.666025933837891 1.8581581875 M 2.6720821838378908 1.8399894375 Q 2.681963433837891 1.8399894375 2.691047808837891 1.8364831875 Q 2.700132183837891 1.8329769375 2.707782183837891 1.8270800625 Q 2.715432183837891 1.8211831875 2.720532183837891 1.8138519375 Q 2.7256321838378907 1.8065206875 2.726907183837891 1.7988706875 L 2.726907183837891 1.7475519375000002 Q 2.7221259338378907 1.7354394375 2.713200933837891 1.7260363125 Q 2.704275933837891 1.7166331875 2.692960308837891 1.7113738125 Q 2.681644683837891 1.7061144375000001 2.669532183837891 1.7061144375000001 Q 2.6555071838378908 1.7061144375000001 2.6445103088378907 1.7120113125 Q 2.6335134338378907 1.7179081875 2.6260228088378907 1.7276300625 Q 2.6185321838378908 1.7373519375000002 2.614388433837891 1.7494644375000001 Q 2.610244683837891 1.7615769375 2.610244683837891 1.7736894375 Q 2.610244683837891 1.7870769375 2.6150259338378907 1.7990300625 Q 2.619807183837891 1.8109831875 2.628254058837891 1.8203863125 Q 2.636700933837891 1.8297894375000001 2.6480165588378908 1.8348894375 Q 2.6593321838378907 1.8399894375 2.6720821838378908 1.8399894375" fill="url(#gradient-0c338d3a-7a7a-4b84-ab05-bcf2dcc2d52b)" fill-rule="nonzero"></path></g><g clip-path="url(#SvgjsClipPath1001)"><g clip-path="url(#ac8921f37-3d57-4da0-8675-f5d93a661402396cab27-68e8-40c5-b3ee-6ab18f7fe00b)"><path d=" M -0.8437663806680735 1.3141387136103813 L -2.915611772025906 1.3141387136103813 L -2.915611772025906 0.05817595197706439 C -2.915611772025906 0.00783036580635596 -2.874798907377166 -0.032982498842383995 -2.824451625897633 -0.032982498842383995 L -0.934924831487522 -0.032982498842383995 C -0.8845809406256384 -0.032982498842383995 -0.8437663806680735 0.00783036580635596 -0.8437663806680735 0.05817595197706439 Z" fill="#5a5758" transform="matrix(1,0,0,1,0,0)" fill-rule="nonzero"></path></g><g clip-path="url(#ac8921f37-3d57-4da0-8675-f5d93a661402396cab27-68e8-40c5-b3ee-6ab18f7fe00b)"><path d=" M -0.8437663806680735 1.3141387136103813 L -2.915611772025906 1.3141387136103813 L -2.915611772025906 0.05817595197706439 C -2.915611772025906 0.00783036580635596 -2.874798907377166 -0.032982498842383995 -2.824451625897633 -0.032982498842383995 L -0.934924831487522 -0.032982498842383995 C -0.8845809406256384 -0.032982498842383995 -0.8437663806680735 0.00783036580635596 -0.8437663806680735 0.05817595197706439 Z" fill="none" transform="matrix(1,0,0,1,0,0)" fill-rule="nonzero" stroke-dasharray="none" stroke-miterlimit="10" stroke-linejoin="miter" stroke-linecap="butt" stroke-width="0.030386715376091084" stroke="#231f20"></path></g><g clip-path="url(#ac8921f37-3d57-4da0-8675-f5d93a661402396cab27-68e8-40c5-b3ee-6ab18f7fe00b)"><path d=" M -2.9156117720259065 1.3141387136103813 L -0.8437663806680735 1.3141387136103813 L -0.8437663806680735 1.4323068246268775 C -0.8437663806680735 1.482652410797586 -0.8845775500079887 1.523465275446326 -0.934924831487522 1.523465275446326 L -2.824449930588808 1.523465275446326 C -2.8747989073771665 1.523465275446326 -2.9156117720259065 1.482652410797586 -2.9156117720259065 1.4323068246268775 Z" fill="#ffffff" transform="matrix(1,0,0,1,0,0)" fill-rule="nonzero"></path></g><g clip-path="url(#ac8921f37-3d57-4da0-8675-f5d93a661402396cab27-68e8-40c5-b3ee-6ab18f7fe00b)"><path d=" M -2.9156117720259065 1.3141387136103813 L -0.8437663806680735 1.3141387136103813 L -0.8437663806680735 1.4323068246268775 C -0.8437663806680735 1.482652410797586 -0.8845775500079887 1.523465275446326 -0.934924831487522 1.523465275446326 L -2.824449930588808 1.523465275446326 C -2.8747989073771665 1.523465275446326 -2.9156117720259065 1.482652410797586 -2.9156117720259065 1.4323068246268775 Z" fill="none" transform="matrix(1,0,0,1,0,0)" fill-rule="nonzero" stroke-dasharray="none" stroke-miterlimit="10" stroke-linejoin="miter" stroke-linecap="butt" stroke-width="0.030386715376091084" stroke="#231f20"></path></g><g clip-path="url(#SvgjsClipPath1000396cab27-68e8-40c5-b3ee-6ab18f7fe00b)"><path d=" M -1.990001678595904 1.4187999336167905 L -1.7693707975160533 1.4187999336167905" fill="none" transform="matrix(1,0,0,1,0,0)" fill-rule="nonzero" stroke-dasharray="none" stroke-miterlimit="10" stroke-linejoin="miter" stroke-linecap="butt" stroke-width="0.030386715376091084" stroke="#231f20"></path></g><g clip-path="url(#SvgjsClipPath1000396cab27-68e8-40c5-b3ee-6ab18f7fe00b)"><path d=" M -2.809019229665288 1.206259431851724 L -2.744149932792338 1.206259431851724 L -2.744149932792338 0.14505374801383994 L -2.809019229665288 0.14505374801383994 Z" fill="#d3d2d2" transform="matrix(1,0,0,1,0,0)" fill-rule="nonzero" stroke-dasharray="none" stroke-miterlimit="10" stroke-linejoin="miter" stroke-linecap="butt" stroke-width="0.030386715376091084" stroke="#231f20"></path></g><g clip-path="url(#SvgjsClipPath1000396cab27-68e8-40c5-b3ee-6ab18f7fe00b)"><path d=" M -2.809019229665288 0.14195811409971698 L -0.9503623136463419 0.14195811409971698 L -0.9503623136463419 0.07708712191794226 L -2.809019229665288 0.07708712191794226 Z" fill="#d3d2d2" transform="matrix(1,0,0,1,0,0)" fill-rule="nonzero" stroke-dasharray="none" stroke-miterlimit="10" stroke-linejoin="miter" stroke-linecap="butt" stroke-width="0.030356199817244304" stroke="#231f20"></path></g><g clip-path="url(#SvgjsClipPath1000396cab27-68e8-40c5-b3ee-6ab18f7fe00b)"><path d=" M -2.7441485560413144 0.15629309044299955 L -2.7441485560413144 0.07969395181111363" fill="none" transform="matrix(1,0,0,1,0,0)" fill-rule="nonzero" stroke-dasharray="none" stroke-miterlimit="10" stroke-linejoin="miter" stroke-linecap="butt" stroke-width="0.030386715376091084" stroke="#231f20"></path></g><g clip-path="url(#SvgjsClipPath1000396cab27-68e8-40c5-b3ee-6ab18f7fe00b)"><path d=" M -2.758010777744074 0.12809726914798078 L -2.7951566894047266 0.12809726914798078 L -2.7951566894047266 0.09094966217850364 L -2.758010777744074 0.09094966217850364 Z" fill="#f9b25f" transform="matrix(1,0,0,1,0,0)" fill-rule="nonzero"></path></g><g clip-path="url(#SvgjsClipPath1000396cab27-68e8-40c5-b3ee-6ab18f7fe00b)"><path d=" M -0.9503623136463419 1.206259431851724 L -2.744149932792338 1.206259431851724 L -2.744149932792338 0.14505374801383994 L -0.9503623136463419 0.14505374801383994 Z" fill="#ffffff" transform="matrix(1,0,0,1,0,0)" fill-rule="nonzero" stroke-dasharray="none" stroke-miterlimit="10" stroke-linejoin="miter" stroke-linecap="butt" stroke-width="0.030386715376091084" stroke="#231f20"></path></g><g clip-path="url(#SvgjsClipPath1000396cab27-68e8-40c5-b3ee-6ab18f7fe00b)"><path d=" M -2.7441485560413144 0.3022620881458166 L -0.9503609368953181 0.3022620881458166" fill="none" transform="matrix(1,0,0,1,0,0)" fill-rule="nonzero" stroke-dasharray="none" stroke-miterlimit="10" stroke-linejoin="miter" stroke-linecap="butt" stroke-width="0.030386715376091084" stroke="#231f20"></path></g><g clip-path="url(#SvgjsClipPath1000396cab27-68e8-40c5-b3ee-6ab18f7fe00b)"><path d=" M -2.42042216921769 0.14814287289212888 L -2.42042216921769 0.30226170284777854" fill="none" transform="matrix(1,0,0,1,0,0)" fill-rule="nonzero" stroke-dasharray="none" stroke-miterlimit="10" stroke-linejoin="miter" stroke-linecap="butt" stroke-width="0.030386715376091084" stroke="#231f20"></path></g><g clip-path="url(#SvgjsClipPath1000396cab27-68e8-40c5-b3ee-6ab18f7fe00b)"><path d=" M -2.3608454775541023 0.2252024805189728 L -1.0094046182156928 0.2252024805189728" fill="none" transform="matrix(1,0,0,1,0,0)" fill-rule="nonzero" stroke-dasharray="none" stroke-miterlimit="10" stroke-linejoin="miter" stroke-linecap="butt" stroke-width="0.030386715376091084" stroke="#231f20"></path></g><g clip-path="url(#SvgjsClipPath1000396cab27-68e8-40c5-b3ee-6ab18f7fe00b)"><path d=" M -2.6517454299866463 0.2435664485153618 L -2.688891341647299 0.2435664485153618 L -2.688891341647299 0.20641884154588436 L -2.6517454299866463 0.20641884154588436 Z M -2.5655338903180254 0.2435664485153618 L -2.6026798019786774 0.2435664485153618 L -2.6026798019786774 0.20641884154588436 L -2.5655338903180254 0.20641884154588436 Z M -2.4793223506494044 0.2435664485153618 L -2.516468262310057 0.2435664485153618 L -2.516468262310057 0.20641884154588436 L -2.4793223506494044 0.20641884154588436 Z" fill="#231f20" transform="matrix(1,0,0,1,0,0)" fill-rule="nonzero"></path></g><g clip-path="url(#SvgjsClipPath1000396cab27-68e8-40c5-b3ee-6ab18f7fe00b)"><path d=" M -1.0505889713697574 0.7473715438403586 L -2.643926665686572 0.7473715438403586 L -2.643926665686572 0.4916223404543416 L -1.0505889713697574 0.4916223404543416 Z" fill="#75bebc" transform="matrix(1,0,0,1,0,0)" fill-rule="nonzero"></path></g><g clip-path="url(#SvgjsClipPath1000396cab27-68e8-40c5-b3ee-6ab18f7fe00b)"><path d=" M -2.2840744969762516 0.8307242285199482 L -1.050584749124761 0.8307242285199482" fill="none" transform="matrix(1,0,0,1,0,0)" fill-rule="nonzero" stroke-dasharray="none" stroke-miterlimit="10" stroke-linejoin="miter" stroke-linecap="butt" stroke-width="0.03012394250824383" stroke="#231f20"></path></g><g clip-path="url(#SvgjsClipPath1000396cab27-68e8-40c5-b3ee-6ab18f7fe00b)"><path d=" M -2.2840744969762516 0.9127604276435329 L -1.050584749124761 0.9127604276435329" fill="none" transform="matrix(1,0,0,1,0,0)" fill-rule="nonzero" stroke-dasharray="none" stroke-miterlimit="10" stroke-linejoin="miter" stroke-linecap="butt" stroke-width="0.03012394250824383" stroke="#231f20"></path></g><g clip-path="url(#SvgjsClipPath1000396cab27-68e8-40c5-b3ee-6ab18f7fe00b)"><path d=" M -2.2840744969762516 0.9947978982519147 L -1.050584749124761 0.9947978982519147" fill="none" transform="matrix(1,0,0,1,0,0)" fill-rule="nonzero" stroke-dasharray="none" stroke-miterlimit="10" stroke-linejoin="miter" stroke-linecap="butt" stroke-width="0.03012394250824383" stroke="#231f20"></path></g><g clip-path="url(#SvgjsClipPath1000396cab27-68e8-40c5-b3ee-6ab18f7fe00b)"><path d=" M -2.2840744969762516 1.076832825890702 L -1.050584749124761 1.076832825890702" fill="none" transform="matrix(1,0,0,1,0,0)" fill-rule="nonzero" stroke-dasharray="none" stroke-miterlimit="10" stroke-linejoin="miter" stroke-linecap="butt" stroke-width="0.03012394250824383" stroke="#231f20"></path></g><g clip-path="url(#SvgjsClipPath1000396cab27-68e8-40c5-b3ee-6ab18f7fe00b)"><path d=" M -2.3451335712383505 1.0952200944436 L -2.643924970377747 1.0952200944436 L -2.643924970377747 0.8152974825244605 L -2.3451335712383505 0.8152974825244605 Z" fill="#f9b25f" transform="matrix(1,0,0,1,0,0)" fill-rule="nonzero"></path></g><g clip-path="url(#SvgjsClipPath1000396cab27-68e8-40c5-b3ee-6ab18f7fe00b)"><path d=" M -2.0874466298655627 0.42801604865588344 L -2.124592541526215 0.42801604865588344 L -2.124592541526215 0.39087013699523093 L -2.0874466298655627 0.39087013699523093 Z M -2.0011927074763216 0.42801604865588344 L -2.0383386191369737 0.42801604865588344 L -2.0383386191369737 0.39087013699523093 L -2.001192707476321 0.39087013699523093 Z M -1.91493878508708 0.42801604865588344 L -1.952084696747732 0.42801604865588344 L -1.952084696747732 0.39087013699523093 L -1.9149387850870798 0.39087013699523093 Z M -1.8286831673890136 0.42801604865588344 L -1.865829079049666 0.42801604865588344 L -1.865829079049666 0.39087013699523093 L -1.8286831673890136 0.39087013699523093 Z M -1.7424292449997723 0.42801604865588344 L -1.7795751566604245 0.42801604865588344 L -1.7795751566604245 0.39087013699523093 L -1.7424292449997723 0.39087013699523093 Z M -1.656175322610531 0.42801604865588344 L -1.6933212342711834 0.42801604865588344 L -1.6933212342711834 0.39087013699523093 L -1.656175322610531 0.39087013699523093 Z M -1.5699214002212898 0.42801604865588344 L -1.607067311881942 0.42801604865588344 L -1.607067311881942 0.39087013699523093 L -1.5699214002212898 0.39087013699523093 Z" fill="#231f20" transform="matrix(1,0,0,1,0,0)" fill-rule="nonzero"></path></g><g clip-path="url(#SvgjsClipPath1000396cab27-68e8-40c5-b3ee-6ab18f7fe00b)"><path d=" M -1.5218102310816954 1.8880990787241196 L -2.237573007538759 1.8880990787241196 L -2.237573007538759 1.800317683083715 L -1.5218102310816954 1.800317683083715 Z" fill="#ffffff" transform="matrix(1,0,0,1,0,0)" fill-rule="nonzero"></path></g><g clip-path="url(#bc8921f37-3d57-4da0-8675-f5d93a661402396cab27-68e8-40c5-b3ee-6ab18f7fe00b)"><path d=" M -1.5218102310816954 1.8880990787241196 L -2.237573007538759 1.8880990787241196 L -2.237573007538759 1.800317683083715 L -1.5218102310816954 1.800317683083715 Z" fill="none" transform="matrix(1,0,0,1,0,0)" fill-rule="nonzero" stroke-dasharray="none" stroke-miterlimit="10" stroke-linejoin="miter" stroke-linecap="butt" stroke-width="0.030386715376091084" stroke="#231f20"></path></g><g clip-path="url(#SvgjsClipPath1000396cab27-68e8-40c5-b3ee-6ab18f7fe00b)"><path d=" M -1.7059392600249177 1.5234634761936192 L -1.6511146679390325 1.8003158838310078 L -2.108258083169657 1.8003158838310078 L -2.053433491083771 1.5234634761936192 Z" fill="#ffffff" transform="matrix(1,0,0,1,0,0)" fill-rule="nonzero"></path></g><g clip-path="url(#SvgjsClipPath1000396cab27-68e8-40c5-b3ee-6ab18f7fe00b)"><path d=" M -1.7059392600249177 1.5234634761936192 L -1.6511146679390325 1.8003158838310078 L -2.108258083169657 1.8003158838310078 L -2.053433491083771 1.5234634761936192 Z" fill="none" transform="matrix(1,0,0,1,0,0)" fill-rule="nonzero" stroke-dasharray="none" stroke-miterlimit="10" stroke-linejoin="miter" stroke-linecap="butt" stroke-width="0.030386715376091084" stroke="#231f20"></path></g><g clip-path="url(#cc8921f37-3d57-4da0-8675-f5d93a661402396cab27-68e8-40c5-b3ee-6ab18f7fe00b)"><path d=" M -3.464379848002805 1.888909436342384 L -0.29499999999999993 1.888909436342384" fill="none" transform="matrix(1,0,0,1,0,0)" fill-rule="nonzero" stroke-dasharray="none" stroke-miterlimit="10" stroke-linejoin="miter" stroke-linecap="butt" stroke-width="0.030386715376091084" stroke="#231f20"></path></g></g></g><defs><linearGradient id="gradient-bcbd488b-bc96-49f6-a7e1-7ccf25e251d1" x1="0" y1="0" x2="1" y2="1"><stop stop-color="#64c6c4" offset="0"></stop><stop stop-color="#212245" offset="1"></stop></linearGradient><linearGradient id="gradient-0c338d3a-7a7a-4b84-ab05-bcf2dcc2d52b" x1="0" y1="0" x2="1" y2="1"><stop stop-color="#e8a941" offset="0"></stop><stop stop-color="#262626" offset="1"></stop></linearGradient><clipPath id="SvgjsClipPath1001"><path d=" M -3.464379848002805 -0.04817585653042966 h 3.169379848002805 v 1.9522786505608594 h -3.169379848002805 Z"></path></clipPath><clipPath id="ac8921f37-3d57-4da0-8675-f5d93a661402396cab27-68e8-40c5-b3ee-6ab18f7fe00b"><path d=" M -3.464379848002805 1.9041027940304298 L -0.29499999999999993 1.9041027940304298 L -0.29499999999999993 -0.04817585653042966 L -3.464379848002805 -0.04817585653042966 Z"></path></clipPath><clipPath id="SvgjsClipPath1000396cab27-68e8-40c5-b3ee-6ab18f7fe00b"><path d=" M -3.464379848002805 -0.04817585653042966 L -0.29499999999999993 -0.04817585653042966 L -0.29499999999999993 1.9041027940304298 L -3.464379848002805 1.9041027940304298 Z"></path></clipPath><clipPath id="bc8921f37-3d57-4da0-8675-f5d93a661402396cab27-68e8-40c5-b3ee-6ab18f7fe00b"><path d=" M -3.464379848002805 1.9041027940304298 L -0.29499999999999993 1.9041027940304298 L -0.29499999999999993 -0.04817585653042966 L -3.464379848002805 -0.04817585653042966 Z"></path></clipPath><clipPath id="cc8921f37-3d57-4da0-8675-f5d93a661402396cab27-68e8-40c5-b3ee-6ab18f7fe00b"><path d=" M -3.464379848002805 1.9041027940304298 L -0.29499999999999993 1.9041027940304298 L -0.29499999999999993 -0.04817585653042966 L -3.464379848002805 -0.04817585653042966 Z"></path></clipPath></defs></svg>